<svg width="16" height="16" viewBox="0 0 16 16" fill="none" xmlns="http://www.w3.org/2000/svg">
<path d="M0 2C0 0.895431 0.895431 0 2 0H14C15.1046 0 16 0.895431 16 2V14C16 15.1046 15.1046 16 14 16H2C0.895431 16 0 15.1046 0 14V2Z" fill="black" fill-opacity="0.04"/>
<path fill-rule="evenodd" clip-rule="evenodd" d="M5.83372 4.63739C6.63319 4.12235 7.59 3.90901 8.53254 4.03562C9.47508 4.16223 10.3417 4.62052 10.9769 5.32828C11.6121 6.03603 11.9744 6.94695 11.9987 7.89765C12.023 8.84834 11.7078 9.7766 11.1097 10.5159C10.5115 11.2553 9.66951 11.7573 8.73468 11.932C7.79985 12.1066 6.83338 11.9425 6.00861 11.4691C5.18383 10.9956 4.55473 10.2438 4.23414 9.34845C3.97146 8.61484 3.92998 7.82421 4.10882 7.07329L5.38912 8.35359L6.09623 7.64648L3.62136 5.17161L1.14648 7.64648L1.85359 8.35359L3.07607 7.13112C2.92597 7.98173 2.99791 8.86236 3.29267 9.68556C3.69341 10.8047 4.47979 11.7445 5.51076 12.3363C6.54172 12.9282 7.74982 13.1333 8.91835 12.915C10.0869 12.6966 11.1394 12.0691 11.8871 11.1449C12.6348 10.2208 13.0288 9.06042 12.9984 7.87206C12.9679 6.68369 12.5151 5.54504 11.7211 4.66034C10.9271 3.77565 9.84385 3.20279 8.66568 3.04452C7.4875 2.88626 6.29149 3.15294 5.29215 3.79673L5.83372 4.63739Z" fill="black"/>
<path d="M2 1H14V-1H2V1ZM15 2V14H17V2H15ZM14 15H2V17H14V15ZM1 14V2H-1V14H1ZM2 15C1.44772 15 1 14.5523 1 14H-1C-1 15.6569 0.343146 17 2 17V15ZM15 14C15 14.5523 14.5523 15 14 15V17C15.6569 17 17 15.6569 17 14H15ZM14 1C14.5523 1 15 1.44772 15 2H17C17 0.343146 15.6569 -1 14 -1V1ZM2 -1C0.343146 -1 -1 0.343146 -1 2H1C1 1.44772 1.44772 1 2 1V-1Z" fill="black" fill-opacity="0.04"/>
</svg>
