<svg style="width: 240px; height: 240px; display: block;" viewBox="0 0 240 240" version="1.1" xmlns="http://www.w3.org/2000/svg" class=""><rect fill="#000000" width="240px" height="240px" x="0" y="0"></rect><g transform="matrix(0.65544921875,0,0,0.65544921875,35,35)"><rect width="128" height="128" fill="#FFFFFF"></rect><line x1="96" y1="2.18557e-08" x2="96" y2="128" stroke="#000000" fill="none" stroke-width="3.364105009088471px" stroke-linecap="square"></line></g><g transform="matrix(0.65544921875,0,0,0.65544921875,121.10249999999999,35)"><g fill="none"><rect width="128" height="128" fill="#FFFFFF"></rect><path d="M-1.64036e-05 32C53.0193 32 96 74.9807 96 128" stroke="#000000" fill="none" stroke-width="3.364105009088471px" stroke-linecap="square"></path></g></g><g transform="matrix(0.65544921875,0,0,0.65544921875,35,121.10249999999999)"><path d="M64 0H128V128H64C28.6538 128 0 99.3462 0 64C0 28.6538 28.6538 0 64 0Z" fill="#FFFFFF"></path><line x1="64" y1="2.18557e-08" x2="64" y2="128" stroke="#000000" fill="none" stroke-width="3.364105009088471px" stroke-linecap="square"></line><path fill-rule="evenodd" clip-rule="evenodd" d="M80 64C80 72.8366 72.8366 80 64 80C55.1634 80 48 72.8366 48 64C48 55.1634 55.1634 48 64 48C72.8366 48 80 55.1634 80 64ZM64 72C68.4183 72 72 68.4183 72 64C72 59.5817 68.4183 56 64 56C59.5817 56 56 59.5817 56 64C56 68.4183 59.5817 72 64 72Z" fill="#000000"></path></g><g transform="matrix(0.65544921875,0,0,0.65544921875,121.10249999999999,121.10249999999999)"><path d="M128 0C57.3075 8.42999e-07 -8.42999e-07 57.3075 0 128H128V0Z" fill="#FFFFFF"></path><path d="M128 64C92.6538 64 64 92.6538 64 128" stroke="#000000" fill="none" stroke-width="3.364105009088471px" stroke-linecap="square"></path></g></svg>