<svg width="16" height="16" viewBox="0 0 16 16" fill="none" xmlns="http://www.w3.org/2000/svg">
<path d="M0 2C0 0.895431 0.895431 0 2 0H14C15.1046 0 16 0.895431 16 2V14C16 15.1046 15.1046 16 14 16H2C0.895431 16 0 15.1046 0 14V2Z" fill="black" fill-opacity="0.04"/>
<circle cx="12" cy="4" r="2" fill="black"/>
<path fill-rule="evenodd" clip-rule="evenodd" d="M10.9569 8.4108C10.9853 8.60309 11 8.79983 11 9C11 11.2091 9.20914 13 7 13C4.79086 13 3 11.2091 3 9C3 6.79086 4.79086 5 7 5C7.19997 5 7.39651 5.01467 7.58861 5.043L8.42548 4.20614C7.97374 4.07201 7.49528 4 7 4C4.23858 4 2 6.23858 2 9C2 11.7614 4.23858 14 7 14C9.76142 14 12 11.7614 12 9C12 8.50453 11.9279 8.0259 11.7937 7.574L10.9569 8.4108Z" fill="black"/>
<path d="M5 7L9 11M9 7L5 11" stroke="black"/>
<path d="M2 1H14V-1H2V1ZM15 2V14H17V2H15ZM14 15H2V17H14V15ZM1 14V2H-1V14H1ZM2 15C1.44772 15 1 14.5523 1 14H-1C-1 15.6569 0.343146 17 2 17V15ZM15 14C15 14.5523 14.5523 15 14 15V17C15.6569 17 17 15.6569 17 14H15ZM14 1C14.5523 1 15 1.44772 15 2H17C17 0.343146 15.6569 -1 14 -1V1ZM2 -1C0.343146 -1 -1 0.343146 -1 2H1C1 1.44772 1.44772 1 2 1V-1Z" fill="black" fill-opacity="0.04"/>
</svg>
