<svg width="16" height="16" viewBox="0 0 16 16" fill="none" xmlns="http://www.w3.org/2000/svg">
<path d="M0 2C0 0.895431 0.895431 0 2 0H14C15.1046 0 16 0.895431 16 2V14C16 15.1046 15.1046 16 14 16H2C0.895431 16 0 15.1046 0 14V2Z" fill="black" fill-opacity="0.04"/>
<path d="M2.3999 8C2.3999 4.90721 4.90711 2.4 7.9999 2.4C9.78467 2.4 11.3744 3.23494 12.3999 4.53552M13.5999 8C13.5999 11.0928 11.0927 13.6 7.9999 13.6C6.21513 13.6 4.62537 12.7651 3.5999 11.4645M5.9999 11.2H3.1999V14M12.7999 2V4.8L9.9999 4.8" stroke="black"/>
<path d="M2 1H14V-1H2V1ZM15 2V14H17V2H15ZM14 15H2V17H14V15ZM1 14V2H-1V14H1ZM2 15C1.44772 15 1 14.5523 1 14H-1C-1 15.6569 0.343146 17 2 17V15ZM15 14C15 14.5523 14.5523 15 14 15V17C15.6569 17 17 15.6569 17 14H15ZM14 1C14.5523 1 15 1.44772 15 2H17C17 0.343146 15.6569 -1 14 -1V1ZM2 -1C0.343146 -1 -1 0.343146 -1 2H1C1 1.44772 1.44772 1 2 1V-1Z" fill="black" fill-opacity="0.04"/>
</svg>
